<svg id="Icons" xmlns="http://www.w3.org/2000/svg" viewBox="0 0 120 106.07"><defs><style>.cls-1{fill:#333;}.cls-2{fill:#666;}.cls-3{fill:#a3a0a0;}.cls-4{fill:#b4b4b4;}.cls-5{fill:#ffd732;}</style></defs><title>Ovarro_Icons_F&amp;amp;B_NoTitles_Colour_RGB</title><path class="cls-1" d="M1,52.92a7.3,7.3,0,0,0,1,3.72l25.78,44.69a7.23,7.23,0,0,0,2.69,2.74,7.31,7.31,0,0,0,3.72,1H85.85a7.4,7.4,0,0,0,3.71-1,7.28,7.28,0,0,0,2.72-2.76L118,56.86a7.26,7.26,0,0,0,1-3.7,7.33,7.33,0,0,0-1-3.73L92.18,4.74A7.21,7.21,0,0,0,85.77,1L34.15,1a7.25,7.25,0,0,0-6.43,3.71L2,49.21A7.26,7.26,0,0,0,1,52.92Z"/><path class="cls-2" d="M85.85,106.07l-51.63,0A8.35,8.35,0,0,1,30,105,8.26,8.26,0,0,1,27,101.83L1.17,57.15A8.33,8.33,0,0,1,0,52.92H0A8.38,8.38,0,0,1,1.17,48.7L26.85,4.22a8.41,8.41,0,0,1,3.08-3.13A8.45,8.45,0,0,1,34.15,0L85.77,0A8.41,8.41,0,0,1,90,1.12a8.33,8.33,0,0,1,3.06,3.12l25.78,44.68a8.21,8.21,0,0,1,0,8.45L93.15,101.85A8.41,8.41,0,0,1,90.07,105,8.5,8.5,0,0,1,85.85,106.07ZM2,52.92a6.44,6.44,0,0,0,.9,3.22L28.7,100.83A6.22,6.22,0,0,0,34.23,104l51.62,0a6.26,6.26,0,0,0,5.56-3.21l25.68-44.49a6.19,6.19,0,0,0,0-6.43L91.31,5.24A6.39,6.39,0,0,0,89,2.87,6.28,6.28,0,0,0,85.77,2L34.15,2a6.32,6.32,0,0,0-3.21.83,6.39,6.39,0,0,0-2.35,2.38L2.91,49.71A6.41,6.41,0,0,0,2,52.92Z"/><path class="cls-3" d="M49.05,67.93a1.48,1.48,0,0,1-.95-.34,18.73,18.73,0,0,1-6.72-14.38,1.47,1.47,0,1,1,2.93,0A15.78,15.78,0,0,0,50,65.34a1.47,1.47,0,0,1-.94,2.59Z"/><path class="cls-3" d="M71.23,67.93a1.45,1.45,0,0,1-1.12-.52,1.47,1.47,0,0,1,.18-2.07A15.81,15.81,0,0,0,76,53.21a1.47,1.47,0,1,1,2.93,0,18.77,18.77,0,0,1-6.73,14.38A1.48,1.48,0,0,1,71.23,67.93Z"/><path class="cls-4" d="M45.7,77.31a1.42,1.42,0,0,1-.79-.23,28.24,28.24,0,0,1-13.1-23.87,1.47,1.47,0,1,1,2.93,0,25.31,25.31,0,0,0,11.75,21.4,1.47,1.47,0,0,1,.44,2A1.45,1.45,0,0,1,45.7,77.31Z"/><path class="cls-4" d="M74.58,77.31a1.45,1.45,0,0,1-1.23-.67,1.47,1.47,0,0,1,.44-2,25.31,25.31,0,0,0,11.75-21.4,1.47,1.47,0,1,1,2.93,0,28.21,28.21,0,0,1-13.1,23.87A1.42,1.42,0,0,1,74.58,77.31Z"/><path class="cls-4" d="M42.15,87.26a1.43,1.43,0,0,1-.71-.19,38.75,38.75,0,0,1-20-33.86,1.47,1.47,0,1,1,2.93,0,35.82,35.82,0,0,0,18.48,31.3,1.47,1.47,0,0,1-.71,2.75Z"/><path class="cls-4" d="M78.13,87.26a1.48,1.48,0,0,1-1.28-.76,1.46,1.46,0,0,1,.57-2A35.82,35.82,0,0,0,95.9,53.21a1.47,1.47,0,1,1,2.93,0,38.76,38.76,0,0,1-20,33.86A1.38,1.38,0,0,1,78.13,87.26Z"/><path class="cls-3" d="M42.84,54.68a1.46,1.46,0,0,1-1.46-1.47A18.76,18.76,0,0,1,48.1,38.83,1.47,1.47,0,0,1,50,41.08a15.8,15.8,0,0,0-5.68,12.13A1.47,1.47,0,0,1,42.84,54.68Z"/><path class="cls-3" d="M77.44,54.68A1.46,1.46,0,0,1,76,53.21a15.82,15.82,0,0,0-5.69-12.13,1.47,1.47,0,1,1,1.89-2.25,18.77,18.77,0,0,1,6.73,14.38A1.47,1.47,0,0,1,77.44,54.68Z"/><path class="cls-4" d="M33.27,54.68a1.46,1.46,0,0,1-1.46-1.47,28.26,28.26,0,0,1,13.1-23.87,1.47,1.47,0,0,1,1.58,2.47,25.31,25.31,0,0,0-11.75,21.4A1.47,1.47,0,0,1,33.27,54.68Z"/><path class="cls-4" d="M87,54.68a1.47,1.47,0,0,1-1.47-1.47,25.31,25.31,0,0,0-11.75-21.4,1.47,1.47,0,0,1,1.58-2.47,28.24,28.24,0,0,1,13.1,23.87A1.46,1.46,0,0,1,87,54.68Z"/><path class="cls-4" d="M22.91,54.68a1.46,1.46,0,0,1-1.46-1.47,38.76,38.76,0,0,1,20-33.86,1.46,1.46,0,0,1,1.42,2.56,35.83,35.83,0,0,0-18.48,31.3A1.47,1.47,0,0,1,22.91,54.68Z"/><path class="cls-4" d="M97.37,54.68a1.47,1.47,0,0,1-1.47-1.47,35.83,35.83,0,0,0-18.48-31.3,1.46,1.46,0,1,1,1.42-2.56,38.76,38.76,0,0,1,20,33.86A1.46,1.46,0,0,1,97.37,54.68Z"/><path class="cls-5" d="M60.14,61.89a8.68,8.68,0,1,1,8.68-8.68A8.69,8.69,0,0,1,60.14,61.89Zm0-14.42a5.75,5.75,0,1,0,5.75,5.74A5.75,5.75,0,0,0,60.14,47.47Z"/></svg>