<?xml version="1.0" encoding="utf-8"?>
<svg id="Icons" viewBox="0 0 120 106.07" xmlns="http://www.w3.org/2000/svg">
  <defs>
    <style>.cls-1{fill:#333;}.cls-2{fill:#666;}.cls-3{fill:#a3a0a0;}.cls-4{fill:#b4b4b4;}.cls-5{fill:#ffd732;}</style>
  </defs>
  <title>Ovarro_Icons_F&amp;amp;B_NoTitles_Colour_RGB</title>
  <path class="cls-1" d="M1,52.92a7.3,7.3,0,0,0,1,3.72l25.78,44.69a7.23,7.23,0,0,0,2.69,2.74,7.31,7.31,0,0,0,3.72,1H85.85a7.4,7.4,0,0,0,3.71-1,7.28,7.28,0,0,0,2.72-2.76L118,56.86a7.26,7.26,0,0,0,1-3.7,7.33,7.33,0,0,0-1-3.73L92.18,4.74A7.21,7.21,0,0,0,85.77,1L34.15,1a7.25,7.25,0,0,0-6.43,3.71L2,49.21A7.26,7.26,0,0,0,1,52.92Z"/>
  <path class="cls-2" d="M85.85,106.07l-51.63,0A8.35,8.35,0,0,1,30,105,8.26,8.26,0,0,1,27,101.83L1.17,57.15A8.33,8.33,0,0,1,0,52.92H0A8.38,8.38,0,0,1,1.17,48.7L26.85,4.22a8.41,8.41,0,0,1,3.08-3.13A8.45,8.45,0,0,1,34.15,0L85.77,0A8.41,8.41,0,0,1,90,1.12a8.33,8.33,0,0,1,3.06,3.12l25.78,44.68a8.21,8.21,0,0,1,0,8.45L93.15,101.85A8.41,8.41,0,0,1,90.07,105,8.5,8.5,0,0,1,85.85,106.07ZM2,52.92a6.44,6.44,0,0,0,.9,3.22L28.7,100.83A6.22,6.22,0,0,0,34.23,104l51.62,0a6.26,6.26,0,0,0,5.56-3.21l25.68-44.49a6.19,6.19,0,0,0,0-6.43L91.31,5.24A6.39,6.39,0,0,0,89,2.87,6.28,6.28,0,0,0,85.77,2L34.15,2a6.32,6.32,0,0,0-3.21.83,6.39,6.39,0,0,0-2.35,2.38L2.91,49.71A6.41,6.41,0,0,0,2,52.92Z"/>
  <path class="cls-3" d="M36.13,33.78a1.46,1.46,0,0,1-.73-2.73L53.55,20.57a1.47,1.47,0,0,1,2,.54,1.45,1.45,0,0,1-.54,2L36.86,33.59A1.47,1.47,0,0,1,36.13,33.78Z"/>
  <path class="cls-3" d="M29.82,65.52a1.46,1.46,0,0,1-1.46-1.46V43.46a1.47,1.47,0,1,1,2.93,0v20.6A1.46,1.46,0,0,1,29.82,65.52Z"/>
  <path class="cls-3" d="M53.89,86.56a1.47,1.47,0,0,1-.73-.19l-17.33-10a1.47,1.47,0,0,1,1.47-2.54l17.32,10a1.46,1.46,0,0,1-.73,2.73Z"/>
  <path class="cls-3" d="M37.45,67.85a1.47,1.47,0,0,1-.73-2.74l7.45-4.3a1.46,1.46,0,1,1,1.47,2.53l-7.46,4.31A1.49,1.49,0,0,1,37.45,67.85Z"/>
  <path class="cls-3" d="M83.42,68.05a1.39,1.39,0,0,1-.73-.2l-7-4a1.47,1.47,0,0,1,1.47-2.54l7,4.06a1.46,1.46,0,0,1-.73,2.73Z"/>
  <path class="cls-3" d="M67.11,86.42a1.46,1.46,0,0,1-.74-2.73L83.92,73.52a1.47,1.47,0,0,1,1.47,2.54L67.85,86.23A1.54,1.54,0,0,1,67.11,86.42Z"/>
  <path class="cls-3" d="M90.87,65.73a1.47,1.47,0,0,1-1.47-1.47V43.53a1.47,1.47,0,1,1,2.93,0V64.26A1.46,1.46,0,0,1,90.87,65.73Z"/>
  <path class="cls-3" d="M85,34a1.49,1.49,0,0,1-.73-.2L65.94,23.26a1.45,1.45,0,0,1-.54-2,1.47,1.47,0,0,1,2-.54L85.69,31.28A1.47,1.47,0,0,1,85,34Z"/>
  <path class="cls-3" d="M60.61,37.53a1.46,1.46,0,0,1-1.46-1.46V27a1.47,1.47,0,0,1,2.93,0v9.12A1.46,1.46,0,0,1,60.61,37.53Z"/>
  <path class="cls-4" d="M60.61,27A8.43,8.43,0,1,1,69,18.59,8.44,8.44,0,0,1,60.61,27Zm0-13.93a5.5,5.5,0,1,0,5.5,5.5A5.51,5.51,0,0,0,60.61,13.09Z" style="fill: rgb(103, 251, 251);"/>
  <path class="cls-4" d="M30.48,44.81a8.42,8.42,0,1,1,4.23-15.72h0A8.43,8.43,0,0,1,37.8,40.6,8.44,8.44,0,0,1,30.48,44.81Zm0-13.92a5.5,5.5,0,1,0,2.74.74h0A5.47,5.47,0,0,0,30.51,30.89Z" style="fill: rgb(249, 249, 249);"/>
  <path class="cls-4" d="M30.51,79.59a8.44,8.44,0,1,1,4.2-1.13A8.31,8.31,0,0,1,30.51,79.59Zm0-13.93a5.48,5.48,0,0,0-2.74.74h0a5.49,5.49,0,1,0,2.74-.74ZM27,65.13h0Z" style="fill: rgb(103, 251, 251);"/>
  <path class="cls-4" d="M90.71,79.59a8.27,8.27,0,0,1-4.19-1.13h0a8.43,8.43,0,1,1,4.19,1.13ZM88,75.92a5.5,5.5,0,1,0-2-7.51,5.5,5.5,0,0,0,2,7.51Z" style="fill: rgb(103, 251, 251);"/>
  <path class="cls-4" d="M90.74,44.82a8.19,8.19,0,0,1-2.19-.29,8.34,8.34,0,0,1-5.12-3.93,8.43,8.43,0,1,1,11.51,3.09h0A8.38,8.38,0,0,1,90.74,44.82Zm0-13.93a5.5,5.5,0,1,0,2.76,10.26h0a5.5,5.5,0,0,0,2-7.51A5.51,5.51,0,0,0,90.72,30.89Z" style="fill: rgb(249, 249, 249);"/>
  <path class="cls-4" d="M60.61,96.18A8.43,8.43,0,1,1,69,87.75,8.44,8.44,0,0,1,60.61,96.18Zm0-13.93a5.5,5.5,0,1,0,5.5,5.5A5.51,5.51,0,0,0,60.61,82.25Z" style="fill: rgb(249, 249, 249);"/>
  <path class="cls-5" d="M60.61,71.62A17.63,17.63,0,1,1,78.24,54,17.65,17.65,0,0,1,60.61,71.62Zm0-32.32A14.7,14.7,0,1,0,75.3,54,14.72,14.72,0,0,0,60.61,39.3Z"/>
</svg>